<svg id="Слой_1" data-name="Слой 1" xmlns="http://www.w3.org/2000/svg" width="2935.2957" height="2683.9149" viewBox="0 0 2935.2957 2683.9149"><defs><style>.cls-1{fill:#ffcf2d;}.cls-2{fill:#66b0f0;}.cls-3{fill:#fff;}.cls-4{fill:#31a1a9;}.cls-5{fill:#e57281;}.cls-6{fill:#fe5244;}.cls-7{fill:#3fb1b5;}.cls-8{fill:#73325a;}.cls-9{fill:#9a3b82;}</style></defs><title>3 SCENE</title><g id="CHARACTER_S_LEGS" data-name="CHARACTER&apos;S LEGS"><path class="cls-1" d="M2164.2959,2649.5764h-1136a3,3,0,0,1,0-6h1136a3,3,0,0,1,0,6Z"/><g id="CHAIR"><path class="cls-2" d="M1947.5928,2526.9768a2.988,2.988,0,0,1-1.5723-.4463l-164.0986-101.2a397.85,397.85,0,0,1-189.0264-338.6533v-445a3,3,0,0,1,6,0v445c0,136.97,69.5987,261.66,186.1749,333.5459l164.1005,101.2a3,3,0,0,1-1.5781,5.5537Z"/><path class="cls-2" d="M1155.2984,2526.9768a3,3,0,0,1-1.5777-5.5537l164.1-101.2c116.5772-71.8858,186.1753-196.5762,186.1753-333.5459v-445a3,3,0,0,1,6,0v445A397.8533,397.8533,0,0,1,1320.97,2425.33l-164.1,101.2A2.985,2.985,0,0,1,1155.2984,2526.9768Z"/><path class="cls-3" d="M1447.2957,1641.6765h200.1a31.9658,31.9658,0,0,0,32-32v-50.5h-264.1v50.5A31.9656,31.9656,0,0,0,1447.2957,1641.6765Z"/><path class="cls-2" d="M1647.3955,1644.677h-200.1a35.04,35.04,0,0,1-35-35v-53.5h270.1v53.5A35.04,35.04,0,0,1,1647.3955,1644.677Zm-229.1-82.5v47.5a29.0331,29.0331,0,0,0,29,29h200.1a29.0334,29.0334,0,0,0,29-29v-47.5Z"/><path class="cls-3" d="M1954.9956,2646.5766a73.5,73.5,0,1,1,73.5-73.5,73.4908,73.4908,0,0,1-73.5,73.5"/><path class="cls-1" d="M1954.9961,2649.5764a76.5,76.5,0,1,1,76.5-76.5A76.5862,76.5862,0,0,1,1954.9961,2649.5764Zm0-147a70.5,70.5,0,1,0,70.5,70.5A70.58,70.58,0,0,0,1954.9961,2502.5764Z"/><path class="cls-3" d="M1153.6958,2646.5766a73.5,73.5,0,1,1,73.5-73.5,73.4908,73.4908,0,0,1-73.5,73.5"/><path class="cls-1" d="M1153.6958,2649.5764a76.5,76.5,0,1,1,76.5-76.5A76.5865,76.5865,0,0,1,1153.6958,2649.5764Zm0-147a70.5,70.5,0,1,0,70.5,70.5A70.58,70.58,0,0,0,1153.6958,2502.5764Z"/><path class="cls-3" d="M1153.6958,2631.0766a58,58,0,1,1,58-58,58.0417,58.0417,0,0,1-58,58"/><path class="cls-1" d="M1153.6958,2634.0764a61,61,0,1,1,61-61A61.0688,61.0688,0,0,1,1153.6958,2634.0764Zm0-116a55,55,0,1,0,55,55A55.0623,55.0623,0,0,0,1153.6958,2518.0764Z"/><path class="cls-3" d="M1954.6958,2631.0766a58,58,0,1,1,58-58,58.0417,58.0417,0,0,1-58,58"/><path class="cls-1" d="M1954.6954,2634.0764a61,61,0,1,1,61-61A61.0688,61.0688,0,0,1,1954.6954,2634.0764Zm0-116a55,55,0,1,0,55,55A55.0622,55.0622,0,0,0,1954.6954,2518.0764Z"/><path class="cls-2" d="M1659.6924,2304.678a2.9915,2.9915,0,0,1-1.4951-.4014c-61.7178-35.5752-116.4023-33.6914-151.4082-25.8477-37.8872,8.49-61.3867,25.4971-61.62,25.667a3,3,0,1,1-3.5479-4.8379c.9927-.7285,24.7554-17.9218,63.856-26.6836,36.0459-8.0791,92.3232-10.0351,155.7158,26.503a3.0008,3.0008,0,0,1-1.501,5.6006Z"/></g><g id="RIGHT_LEG" data-name="RIGHT LEG"><path class="cls-4" d="M1593.5957,1519.2766l-92,941.3h283.5l233.1-847c42.9-138.2-49.4-278.8-193.1-279.1h-20C1698.6958,1334.1766,1608.4956,1413.0766,1593.5957,1519.2766Z"/><path class="cls-5" d="M1556.9956,2460.5766h149.4l-23.5,76.9c-29.5-29.4-70.6-50.6-115.5-53.3-4.2-.3-8.3-.4-12.4-.4Z"/><path class="cls-3" d="M1728.3958,2645.9765c7.8-72.4-68.6-156.2-161.1-161.9s-149.6,55.4-154.1,128c-.7,11-1.7,24.4.7,34.2Z"/><path class="cls-6" d="M1411.542,2649.2785l-.56-2.288c-2.4033-9.8145-1.5908-22.4707-.874-33.6377l.0937-1.4668c2.3311-37.6026,18.3277-71.4873,45.0435-95.4073,28.9262-25.8994,67.7348-38.1386,112.2358-35.3964,48.0283,2.96,96.0674,27.6728,128.5039,66.1074,25.9649,30.7656,38.8653,66.89,35.3936,99.1084l-.2881,2.6758Zm143.36-162.5888c-89.8535,0-134.8828,63.7812-138.7129,125.5722l-.0942,1.4756c-.6319,9.8438-1.3414,20.8916.229,29.5371l309.3359-.2949c2.3184-29.9209-10.0723-63.2588-34.2607-91.92-31.4-37.207-77.8633-61.1279-124.2881-63.9893Q1560.8769,2486.6868,1554.9024,2486.69Z"/><rect class="cls-6" x="1569.1453" y="2465.2656" width="6.0004" height="312.5219" transform="translate(-1067.8063 4162.5319) rotate(-89.3218)"/></g><g id="LEFT_LEG" data-name="LEFT LEG"><path class="cls-7" d="M1674.1958,2460.5766l236.5-144-528.8-885.9c-66.9-106.1-236.7-138.9-343.8-73.7h0c-123.5,75.2-147.7,244.3-50.3,351.1Z"/><path class="cls-3" d="M1674.6368,2460.4055,986.585,1710.1037a232.7576,232.7576,0,0,1,50.9507-355.6894c52.1582-31.7534,121.0981-41.8731,189.1445-27.7627,68.8487,14.2764,126.7119,51.6094,158.7529,102.4258L1916.8125,2315.61ZM1165.6817,1326.7239c-44.4238,0-88.3076,10.4624-125.0259,32.8154a226.758,226.758,0,0,0-49.6431,346.5156l684.7412,746.6924,232.8243-139.2041L1380.3223,1432.219C1338.0918,1365.2434,1250.9048,1326.7239,1165.6817,1326.7239Z"/><path class="cls-8" d="M1906.9956,2310.2766c-10.5-17.4-72,.3-137.4,39.7-65.4,39.3-109.7,86.7-99.2,104.1s71.8-1.7,137.2-41C1872.8958,2373.7766,1917.3958,2327.7766,1906.9956,2310.2766Z"/><path class="cls-5" d="M1892.5957,2422.8767l-110.4,69.4-31.2-35-9.5-10.7-39.6-44.4c17-17.4,40.3-35.8,67.8-52.2,22.2-13.3,44.1-23.9,63.9-31.1l30.9,54.3,6.8,11.9Z"/><path class="cls-3" d="M2066.7957,2498.1765l-275,148.3h0a102.2124,102.2124,0,0,1-17.5-26,150.801,150.801,0,0,1-9.5-25.8c-16.2-60.8,6.7-130.5,79.8-165.3,64.5-30.7,144.8-13.1,191.2,27.3C2049.4956,2468.7766,2060.2957,2482.8767,2066.7957,2498.1765Z"/><path class="cls-6" d="M1791.1817,2650.217l-1.58-1.6943a105.37,105.37,0,0,1-18.0156-26.7588,154.2289,154.2289,0,0,1-9.6846-26.2979c-8.4756-31.8085-6.1445-65.3242,6.5576-94.3906,13.999-32.0312,39.8809-57.7607,74.8477-74.4082,31.1025-14.8027,67.126-19.3877,104.166-13.2627,34.3838,5.6865,66.4512,20.251,90.293,41.01,14.3486,12.6719,25.3359,27.3945,31.791,42.59l1.0693,2.5157Zm124.8652-233.5859a162.5679,162.5679,0,0,0-70.1621,15.4541c-79.457,37.8271-91.78,110.8125-78.19,161.8193a148.2368,148.2368,0,0,0,9.3037,25.27,100.1347,100.1347,0,0,0,15.4385,23.5488l270.4922-145.8692c-6.2237-13.4941-16.2452-26.5585-29.1192-37.9277C2005.4844,2434.2629,1961.712,2416.6311,1916.0469,2416.6311Z"/><path class="cls-6" d="M1776.9991,2626.9778a3.0007,3.0007,0,0,1-1.4268-5.6416l275.1-148.3a3,3,0,1,1,2.8477,5.2812l-275.1,148.3A2.9877,2.9877,0,0,1,1776.9991,2626.9778Z"/><path class="cls-9" d="M1864.2957,2373.0766a452.8911,452.8911,0,0,1-56.9,40,473.36,473.36,0,0,1-66.1,33.5l-41.6-44.4c17-17.4,42.3-35.8,69.8-52.2,22.2-13.3,44.1-24.9,63.9-32.1Z"/><path class="cls-3" d="M1656.7276,2440.6262c-2.1748-3.6025-2.6055-8.1357-1.2813-13.4736,5.9209-23.8711,47.25-62.9141,100.5039-94.9463,31.5342-18.9688,65.5977-34.2031,93.4561-41.7988,16.7725-4.5733,46.0967-10.2735,54.0576,2.9189l-5.1367,3.1c-4.1992-6.959-22.3389-7.0459-47.3418-.2305-27.35,7.4571-60.8613,22.4561-91.9434,41.1514-57.9785,34.875-93.0722,72.3027-97.7724,91.25-.9268,3.7354-.7266,6.74.5947,8.93Z"/></g></g><g id="TABLE"><path class="cls-9" d="M2821.4956,1559.1766a47.33,47.33,0,0,0,47.3-47.3v-181a47.33,47.33,0,0,0-47.3-47.3h-2630.4a47.33,47.33,0,0,0-47.3,47.3v181a47.33,47.33,0,0,0,47.3,47.3Z"/><path class="cls-3" d="M2820.6958,1242.5766h-2628.9a47.33,47.33,0,0,0-47.3,47.3v181a47.33,47.33,0,0,0,47.3,47.3h2628.9a47.3294,47.3294,0,0,0,47.3-47.3v-181A47.33,47.33,0,0,0,2820.6958,1242.5766Z"/><path class="cls-1" d="M2820.6954,1521.177H191.7959a50.3575,50.3575,0,0,1-50.3-50.3008V1289.8767a50.3574,50.3574,0,0,1,50.3-50.3h2628.9a50.3578,50.3578,0,0,1,50.3007,50.3v180.9995A50.3579,50.3579,0,0,1,2820.6954,1521.177ZM191.7959,1245.5764a44.35,44.35,0,0,0-44.3,44.3v180.9995a44.3507,44.3507,0,0,0,44.3,44.3008h2628.9a44.3507,44.3507,0,0,0,44.3007-44.3008V1289.8767a44.3505,44.3505,0,0,0-44.3007-44.3Z"/><path class="cls-1" d="M2683.7959,2649.9768a3,3,0,0,1-3-3V1518.3762a3,3,0,1,1,6,0V2646.9768A3,3,0,0,1,2683.7959,2649.9768Z"/><path class="cls-1" d="M388.8955,2649.9768a3,3,0,0,1-3-3V1518.3762a3,3,0,0,1,6,0V2646.9768A3,3,0,0,1,388.8955,2649.9768Z"/></g><g id="PLANT"><path class="cls-9" d="M302.4958,2366.0766l-4.2,2.7-152.6-235.1-45.9,3.5a14.7353,14.7353,0,1,1,5.9-27.6l37.7,20.7-27.7-42.8-45.9,3.6a14.7323,14.7323,0,1,1,6-27.6l37.7,20.6-27.7-42.8-45.9,3.6a14.7323,14.7323,0,1,1,6-27.6l37.7,20.7-16.7-25.7-31-26.5a14.7493,14.7493,0,1,1,23.7-15.4l11.5,39.1,17.2,26.5-3.6-44a14.712,14.712,0,1,1,27.6,5.8l-22.2,41,28.1,43.3-3.6-43.9a14.712,14.712,0,1,1,27.6,5.8l-22.2,41,28.1,43.3-3.6-43.9a14.712,14.712,0,1,1,27.6,5.8l-22.2,41Z"/><path class="cls-9" d="M558.8958,2282.9765c-73.3,147.7-172.3,250.4-230.8,243.3a41.3791,41.3791,0,0,1-13.5-4c-55.6-27.6-36.4-179.5,43-339.3,34-68.5,73.5-127.2,111.9-169.9,51.3-56.9,100.6-85.2,132.4-69.4C657.4958,1971.2766,638.1957,2123.1765,558.8958,2282.9765Z"/><path class="cls-1" d="M467.0957,2166.2766c-16.3,187.2-76.2,338.2-138.9,360a41.3791,41.3791,0,0,1-13.5-4c-55.6-27.6-36.4-179.5,43-339.3,34-68.5,73.5-127.2,111.9-169.9A1059.9615,1059.9615,0,0,1,467.0957,2166.2766Z"/><rect class="cls-1" x="143.2019" y="2231.9768" width="643.6877" height="5.9999" transform="translate(-1755.6039 1705.7282) rotate(-64.8406)"/><path class="cls-1" d="M596.6957,2375.6765l-38.7,13-25.8,18.1,43.8-5.2a14.7522,14.7522,0,0,1,16.3,17.1h0a14.7526,14.7526,0,0,1-21.1,10.7l-41.8-20.7-42.3,29.7,43.8-5.2a14.73,14.73,0,1,1-4.8,27.8l-41.8-20.7-42.2,29.7,43.8-5.2a14.7252,14.7252,0,1,1-4.9,27.8l-41.8-20.7-77.3,54.3h-8.7l83.3-58.5-5.2-45.7a14.729,14.729,0,1,1,27.8,4.9l-19.3,38.5,41.7-29.3-5.2-45.7a14.729,14.729,0,1,1,27.8,4.9l-19.2,38.4,41.7-29.3-5.2-45.7a14.729,14.729,0,1,1,27.8,4.9l-19.3,38.5,25.1-17.6,25.3-32a14.7812,14.7812,0,1,1,16.4,23.1992Z"/><path class="cls-3" d="M282.9958,2518.4765a81.4848,81.4848,0,0,1-15.7,3.6c-63,8.2-150-50.6-202.6-139.9-57.1-97-51.9-193.2,11.6-215,20.6-7.1,44.9-5.4,70.1,3.4,52.6,18.3,109.6,67.3,148.2,132.8C351.5957,2400.4765,346.3958,2496.6765,282.9958,2518.4765Z"/><path class="cls-1" d="M255.3355,2525.8323c-28.7666,0-61.9649-12.0469-94.937-34.669-37.8657-25.9814-72.772-64.1455-98.2876-107.4639-18.4029-31.2617-31.1-63.8652-36.7188-94.2871-5.49-29.72-4.1777-56.83,3.794-78.3984,8.54-23.1045,24.4931-39.2441,46.1357-46.6748,20.5142-7.0693,45.4336-5.8945,72.063,3.4053,54.9038,19.1015,112.3037,70.4892,149.7954,134.1084,18.3843,31.3183,31.0611,63.9638,36.6631,94.414,5.4731,29.75,4.1475,56.877-3.834,78.4473-8.5342,23.0644-24.4541,39.1777-46.0381,46.6l-.01.0029a84.4291,84.4291,0,0,1-16.28,3.7354A95.7276,95.7276,0,0,1,255.3355,2525.8323Zm-151.31-360.0518a81.8686,81.8686,0,0,0-26.7519,4.2324c-19.8848,6.8272-34.5655,21.7237-42.4595,43.0811-15.7422,42.5928-3.3018,106.7978,32.4673,167.5615,51.2842,87.0654,137.1084,146.5752,199.6274,138.4463a78.41,78.41,0,0,0,15.1172-3.4639c19.8213-6.8183,34.4688-21.6894,42.356-43.0058,15.7617-42.5967,3.3569-106.87-32.3731-167.7373-36.8-62.4454-92.9746-112.8291-146.5991-131.4854C130.8677,2168.3313,116.9107,2165.7805,104.0254,2165.7805Z"/><path class="cls-1" d="M282.9958,2518.4765a81.4848,81.4848,0,0,1-15.7,3.6c-58.2-26.4-108.8-138.2-119.5-274a633.7842,633.7842,0,0,1-1.4-77.5c52.6,18.3,109.6,67.3,148.2,132.8C351.5957,2400.4765,346.3958,2496.6765,282.9958,2518.4765Z"/><rect class="cls-1" x="156.696" y="2150.201" width="5.9996" height="402.951" transform="matrix(0.8458, -0.5336, 0.5336, 0.8458, -1230.1376, 447.9307)"/><ellipse class="cls-3" cx="308.5957" cy="2155.3767" rx="126" ry="374.8999"/><path class="cls-1" d="M308.5957,2533.2766c-35.0463,0-67.6977-39.7227-91.9389-111.85-23.8994-71.1094-37.0611-165.5947-37.0611-266.0508s13.1617-194.94,37.0611-266.05c24.2412-72.127,56.8926-111.85,91.9389-111.85s67.6978,39.7226,91.939,111.85c23.8994,71.1094,37.061,165.5947,37.061,266.05s-13.1616,194.9414-37.061,266.0508C376.2935,2493.5539,343.6421,2533.2766,308.5957,2533.2766Zm0-749.8c-16.0493,0-31.76,9.5312-46.6962,28.3281-14.7867,18.6084-28.0953,45.334-39.5557,79.4336-23.6973,70.5088-36.7481,164.3154-36.7481,264.1377s13.0508,193.63,36.7481,264.1387c11.46,34.1,24.769,60.8252,39.5557,79.4336,14.9365,18.7968,30.6469,28.3281,46.6962,28.3281s31.76-9.5313,46.6963-28.3281c14.7867-18.6084,28.0952-45.334,39.5557-79.4336,23.6973-70.5088,36.748-164.3155,36.748-264.1387s-13.0507-193.6289-36.748-264.1377c-11.46-34.1-24.769-60.8252-39.5557-79.4336C340.3555,1793.008,324.6451,1783.4768,308.5957,1783.4768Z"/><rect class="cls-1" x="305.5957" y="1780.3762" width="6" height="749.9004"/><path class="cls-1" d="M308.1026,1983.553l-70.2847-139.1241a3,3,0,0,1,5.3555-2.705l65.9155,130.4755,77.4024-103.7167a3,3,0,1,1,4.8085,3.5878Z"/><path class="cls-1" d="M307.3628,2114.5725l-98.6323-190.8184a3,3,0,0,1,5.33-2.7558L308.229,2103.18l104.34-143.4678a3,3,0,0,1,4.8525,3.5293Z"/><path class="cls-1" d="M306.3706,2244.5725,190.0328,2020.2571a3,3,0,1,1,5.3261-2.7618L307.2212,2233.18l122.0464-168.2646a3,3,0,1,1,4.8565,3.5234Z"/><path class="cls-1" d="M307.0088,2397.5764l-126.7671-240.501a3,3,0,1,1,5.3077-2.7969L307.7823,2386.176l129.2729-180.8437a3,3,0,1,1,4.8809,3.4882Z"/><path class="cls-3" d="M495.3958,2646.9765h-373.9a52.2374,52.2374,0,0,1-52.2-52.2v-16.3a52.2374,52.2374,0,0,1,52.2-52.2h373.9a52.2373,52.2373,0,0,1,52.2,52.2v16.3A52.1734,52.1734,0,0,1,495.3958,2646.9765Z"/><path class="cls-2" d="M495.3955,2649.9768h-373.9a55.2626,55.2626,0,0,1-55.2-55.2v-16.3a55.2626,55.2626,0,0,1,55.2-55.2h373.9a55.2627,55.2627,0,0,1,55.2,55.2v16.3A55.2627,55.2627,0,0,1,495.3955,2649.9768Zm-373.9-120.7a49.2557,49.2557,0,0,0-49.2,49.2v16.3a49.2557,49.2557,0,0,0,49.2,49.2h373.9a49.2561,49.2561,0,0,0,49.2-49.2v-16.3a49.2561,49.2561,0,0,0-49.2-49.2Z"/></g><g id="BOOKS"><path class="cls-6" d="M2696.5957,1347.6766h0c0,14.9-11.9,27-26.5,27h-407.3a26.72,26.72,0,0,1-26.5-27h0c0-14.9,11.9-27,26.5-27h407.3C2684.6958,1320.6766,2696.5957,1332.7766,2696.5957,1347.6766Z"/><path class="cls-3" d="M2524.6958,1066.4765h-166.7v116h322A162.0327,162.0327,0,0,0,2524.6958,1066.4765Z"/><path class="cls-1" d="M2684.0147,1185.4768H2354.9961v-122h169.6993a165.0337,165.0337,0,0,1,158.1767,118.147Zm-323.0186-6h314.9268c-21.1-64.9673-82.707-110-151.2275-110H2360.9961Z"/><polygon class="cls-1" points="2387.996 1066.477 2387.996 1182.477 2318.996 1182.577 2318.996 1066.477 2387.996 1066.477"/><path class="cls-1" d="M2315.9961,1185.5808v-122.104h75v121.9956Zm6-116.104V1179.572l63-.0908V1069.4768Z"/><path class="cls-1" d="M2674.0147,1185.531l3.5674-4.8355c.67-.9077,16.8437-22.4516,54.956-41.3442,24.794-12.2905,62.6328-24.9961,115.13-27.0859-52.7783-4.5513-128.45-6.1065-204.1689,9.45l-1.2071-5.877c138.208-28.3955,276.2383-.2861,277.6162.0015l-1.0009,5.9116c-89.6133-11.6982-149.1582,5.9351-183.3262,22.7891-26.3272,12.9868-42.0439,27.5132-48.9668,34.8769l248.6543-2.2407.0547,6Z"/><path class="cls-1" d="M2681.4414,1185.1057l-2.8906-5.2578c.2832-.1558,28.8242-15.69,73.6934-27.3,41.3965-10.7109,105.6543-20.2227,176.6924-4.7017l-1.2813,5.8614c-69.8808-15.2671-133.1445-5.898-173.9082,4.6489C2709.5967,1169.78,2681.7178,1184.9538,2681.4414,1185.1057Z"/><path class="cls-1" d="M2708.4956,1277.3766c0,10.9,1.7,20.8,4.4,28.1h-122.5c-6.3,0-11.5-5.5-11.5-12.2v-31.7c0-6.8,5.1-12.2,11.5-12.2h122.5C2710.1958,1256.5766,2708.4956,1266.4765,2708.4956,1277.3766Z"/><path class="cls-3" d="M2578.9956,1261.5766v31.7a12.1844,12.1844,0,0,0,12.2,12.2h131.6v2.3a10.0721,10.0721,0,0,1-10.1,10.1h-460.3a10.0721,10.0721,0,0,1-10.1-10.1v-60.8a10.072,10.072,0,0,1,10.1-10.1h460.3a10.0721,10.0721,0,0,1,10.1,10.1v2.3h-131.6A12.3351,12.3351,0,0,0,2578.9956,1261.5766Z"/><path class="cls-1" d="M2712.6954,1320.8767h-460.3a13.115,13.115,0,0,1-13.1005-13.1v-60.8a13.115,13.115,0,0,1,13.1005-13.1h460.3a13.115,13.115,0,0,1,13.1005,13.1v5.3h-134.6a9.3726,9.3726,0,0,0-9.1993,9.3v31.7a9.21,9.21,0,0,0,9.1993,9.2h134.6005v5.3A13.115,13.115,0,0,1,2712.6954,1320.8767Zm-460.3-81a7.1085,7.1085,0,0,0-7.1005,7.1v60.8a7.1085,7.1085,0,0,0,7.1005,7.1h460.3a7.1107,7.1107,0,0,0,7.0664-6.4H2591.1954a15.2171,15.2171,0,0,1-15.1993-15.2v-31.7a15.4067,15.4067,0,0,1,15.1543-15.2993l128.6114-.0005a7.1107,7.1107,0,0,0-7.0664-6.4Z"/><path class="cls-1" d="M2407.4956,1396.3766c-4.8,4.5-7.8,12.7-7.8,19.6,0,13.7,12,27.8,26.8,27.8h368.8a11.7149,11.7149,0,0,1-11.7,11.7h-445.1a44.9316,44.9316,0,0,1-30.5-11.7,38.441,38.441,0,0,1-12.7-28.3c0-22.1,19.3-40,43.2-40h445.1a11.715,11.715,0,0,1,11.7,11.7v2.1h-368.8A27.5118,27.5118,0,0,0,2407.4956,1396.3766Z"/><path class="cls-6" d="M2768.5957,1389.1766v53.6h26.6v4.5h-370a30.5078,30.5078,0,0,1-11.7-2.3h0a30.5179,30.5179,0,0,1-10.4-6.9,31.2542,31.2542,0,0,1,22.1-53.4h370v4.5h-26.6Z"/><path class="cls-3" d="M2778.8958,1389.1766v53.6h-352.4a26.8016,26.8016,0,0,1-26.8-26.8,27.0914,27.0914,0,0,1,7.8-19,26.6758,26.6758,0,0,1,18.9-7.8h352.5Z"/><rect class="cls-6" x="2776.3955" y="1389.177" width="5" height="53.5996"/><path class="cls-6" d="M2475.5957,1427.1766v44.7h-30.9v-39a16.879,16.879,0,0,0-16.9-16.9h-13.8v-5.7h44.7A16.879,16.879,0,0,1,2475.5957,1427.1766Z"/><path class="cls-2" d="M2796.6958,1184.9765h-525.4a24.5824,24.5824,0,0,0-24.6,24.6h0a24.6256,24.6256,0,0,0,24.6,24.5h525.4a24.5824,24.5824,0,0,0,24.6-24.6h0A24.6905,24.6905,0,0,0,2796.6958,1184.9765Z"/><path class="cls-9" d="M2677.4956,1234.1766h-5.3c.6,1.6,2.1,5.6,5.4,5.6,2,0,11.8-1.5,11.8-30.2,0-10.2-1.2-18-3.6-23.3-2.9-6.3-6.7-7-8.1-7-3.4,0-4.9,4.1-5.5,5.7h5.3a2.4851,2.4851,0,0,1,.5-.7c1.8.5,6.6,5.5,6.6,25.3s-4.8,24.7-6.6,25.3A1.7992,1.7992,0,0,1,2677.4956,1234.1766Z"/><path class="cls-9" d="M2720.8958,1234.1766h-5.3c.6,1.6,2.1,5.6,5.4,5.6,2,0,11.8-1.5,11.8-30.2,0-10.2-1.2-18-3.6-23.3-2.9-6.3-6.7-7-8.1-7-3.4,0-4.9,4.1-5.5,5.7h5.3a2.4872,2.4872,0,0,1,.5-.7c1.8.5,6.6,5.5,6.6,25.3s-4.8,24.7-6.6,25.3C2721.2957,1234.6766,2721.0957,1234.4765,2720.8958,1234.1766Z"/><path class="cls-9" d="M2764.3958,1234.1766h-5.3c.6,1.6,2.1,5.6,5.4,5.6,2.8,0,11.8-2.2,11.8-30.2,0-28.1-9-30.2-11.8-30.2-3.4,0-4.9,4.1-5.5,5.7h5.3a2.4831,2.4831,0,0,1,.5-.7c2,.5,6.6,5.7,6.6,25.3,0,12-1.7,18.2-3.2,21.4-1.2,2.6-2.5,3.7-3.4,3.9A2.9971,2.9971,0,0,0,2764.3958,1234.1766Z"/><path class="cls-9" d="M2546.9956,1234.1766h-5.3c.6,1.6,2.1,5.6,5.4,5.6,2,0,11.8-1.5,11.8-30.2,0-28.1-9-30.2-11.8-30.2-3.4,0-4.9,4.1-5.5,5.7h5.3a2.4872,2.4872,0,0,1,.5-.7c2,.5,6.6,5.7,6.6,25.3,0,19.8-4.8,24.7-6.6,25.3C2547.3958,1234.6766,2547.1958,1234.4765,2546.9956,1234.1766Z"/><path class="cls-9" d="M2590.4956,1234.1766h-5.3c.6,1.6,2.1,5.6,5.4,5.6,1.9,0,5.4-.8,8.1-6.4,2.4-5.1,3.7-13.1,3.7-23.8s-1.2-18.7-3.7-23.8c-2.7-5.6-6.2-6.4-8.1-6.4-3.4,0-4.9,4.1-5.5,5.7h5.3a2.4882,2.4882,0,0,1,.5-.7c1.2.2,2.4,1.5,3.4,3.6,1.4,3,3.2,9.2,3.2,21.7,0,12.4-1.7,18.6-3.2,21.7-1,2.1-2.3,3.4-3.4,3.6A2.9831,2.9831,0,0,0,2590.4956,1234.1766Z"/><path class="cls-9" d="M2633.9956,1234.1766h-5.3c.6,1.6,2.1,5.6,5.4,5.6,2.8,0,11.8-2.2,11.8-30.2,0-28.8-9.8-30.2-11.8-30.2-3.4,0-4.9,4.1-5.5,5.7h5.3a2.4872,2.4872,0,0,1,.5-.7c1.8.5,6.6,5.5,6.6,25.3,0,19.6-4.6,24.8-6.6,25.3A2.9785,2.9785,0,0,0,2633.9956,1234.1766Z"/><path class="cls-9" d="M2416.5957,1234.1766h-5.3c.6,1.6,2.1,5.6,5.4,5.6,1.5,0,5.3-.7,8.1-7,2.4-5.2,3.6-13.1,3.6-23.3,0-9.4-1.3-17.3-3.6-22.7-2.1-4.8-5.1-7.6-8.2-7.6-3.4,0-4.9,4.1-5.5,5.7h5.3c.2-.3.3-.6.4-.7.6.3,2,1.4,3.4,4.6,1.5,3.3,3.2,9.6,3.2,20.6,0,19.8-4.8,24.7-6.6,25.3C2416.8958,1234.6766,2416.7957,1234.4765,2416.5957,1234.1766Z"/><path class="cls-9" d="M2460.0957,1234.1766h-5.3c.6,1.6,2.1,5.6,5.4,5.6,1.5,0,5.3-.7,8.1-7,2.4-5.2,3.6-13.1,3.6-23.3,0-28.1-9-30.2-11.8-30.2-3.4,0-4.9,4.1-5.5,5.7h5.3a2.4831,2.4831,0,0,1,.5-.7c2,.5,6.6,5.7,6.6,25.3,0,19.8-4.8,24.7-6.6,25.3A1.3293,1.3293,0,0,0,2460.0957,1234.1766Z"/><path class="cls-9" d="M2503.5957,1234.1766h-5.3c.6,1.6,2.1,5.6,5.4,5.6,2.8,0,11.8-2.2,11.8-30.2,0-10.7-1.2-18.7-3.7-23.8-2.7-5.6-6.2-6.4-8.1-6.4-3.4,0-4.9,4.1-5.5,5.7h5.3a2.4835,2.4835,0,0,1,.5-.7c1.2.2,2.4,1.5,3.4,3.6,1.4,3,3.2,9.2,3.2,21.7,0,19.6-4.6,24.8-6.6,25.3C2503.8958,1234.6766,2503.6958,1234.4765,2503.5957,1234.1766Z"/><path class="cls-9" d="M2286.1958,1234.1766h-5.3c.6,1.6,2.1,5.6,5.4,5.6,3.1,0,6-2.8,8.2-7.6,2.4-5.4,3.6-13.2,3.6-22.7,0-11.1-2-18.1-3.6-22-2.2-5.2-5.2-8.2-8.2-8.2-3.4,0-4.9,4.1-5.5,5.7h5.3a5.7139,5.7139,0,0,0,.4-.7c.7.4,2.2,1.8,3.6,5.6,1.4,3.5,3,9.7,3,19.6,0,11.1-1.7,17.3-3.2,20.7-1.4,3.2-2.8,4.3-3.4,4.6C2286.4956,1234.6766,2286.2957,1234.4765,2286.1958,1234.1766Z"/><path class="cls-9" d="M2329.5957,1234.1766h-5.3c.6,1.6,2.1,5.6,5.4,5.6,3.1,0,6-2.8,8.2-7.6,2.4-5.4,3.6-13.2,3.6-22.7,0-19.6-6.1-30.2-11.8-30.2-3.4,0-4.9,4.1-5.5,5.7h5.3a5.7139,5.7139,0,0,0,.4-.7c.7.4,2.1,1.8,3.6,5.4,1.4,3.4,3,9.7,3,19.8,0,11.1-1.7,17.3-3.2,20.7-1.4,3.2-2.8,4.3-3.4,4.6A1.5458,1.5458,0,0,0,2329.5957,1234.1766Z"/><path class="cls-9" d="M2373.0957,1234.1766h-5.3c.6,1.6,2.1,5.6,5.4,5.6,1.5,0,5.2-.7,8.2-7.4,2.4-5.4,3.6-13.1,3.6-22.8,0-9.4-1.3-17.3-3.6-22.7-2.1-4.8-5.1-7.6-8.2-7.6-3.4,0-4.9,4.1-5.5,5.7h5.3c.2-.3.3-.6.4-.7.6.3,2,1.4,3.4,4.6,1.5,3.3,3.2,9.6,3.2,20.6,0,11.3-1.7,17.5-3.2,20.8-1.4,3.1-2.8,4.2-3.4,4.4A5.07,5.07,0,0,0,2373.0957,1234.1766Z"/></g><g id="CLOCK"><path class="cls-1" d="M2611.0957,482.0766h-350.6a36.66,36.66,0,0,1-36.7-36.7v-350.6a36.66,36.66,0,0,1,36.7-36.7h350.6a36.66,36.66,0,0,1,36.7,36.7v350.6A36.7241,36.7241,0,0,1,2611.0957,482.0766Z"/><path class="cls-3" d="M2585.4956,458.5766h-357.5a36.66,36.66,0,0,1-36.7-36.7v-357.5a36.66,36.66,0,0,1,36.7-36.7h357.5a36.66,36.66,0,0,1,36.7,36.7v357.5A36.66,36.66,0,0,1,2585.4956,458.5766Z"/><path class="cls-1" d="M2585.4961,461.5764h-357.5a39.7449,39.7449,0,0,1-39.7-39.7v-357.5a39.7454,39.7454,0,0,1,39.7-39.7h357.5a39.7445,39.7445,0,0,1,39.6993,39.7v357.5A39.7441,39.7441,0,0,1,2585.4961,461.5764Zm-357.5-430.9a33.7385,33.7385,0,0,0-33.7,33.7v357.5a33.7384,33.7384,0,0,0,33.7,33.7h357.5a33.7376,33.7376,0,0,0,33.6993-33.7v-357.5a33.7377,33.7377,0,0,0-33.6993-33.7Z"/><path class="cls-1" d="M2406.7959,411.0764c-92.6357,0-168-75.3643-168-168s75.3643-168,168-168,168,75.3643,168,168S2499.4317,411.0764,2406.7959,411.0764Zm0-330c-89.3271,0-162,72.6729-162,162s72.6729,162,162,162,162-72.6729,162-162S2496.1231,81.0764,2406.7959,81.0764Z"/><path class="cls-1" d="M2412.6358,251.3049l-100.459-76.6431a3,3,0,0,1,3.6387-4.77l85.1406,64.9566-19.8125-60.7412a3,3,0,0,1,5.7051-1.86Z"/></g><g id="PAPER"><polygon class="cls-1" points="2112.996 1518.177 1830.296 1518.177 1711.596 1375.577 1987.496 1375.577 2112.996 1518.177"/><path class="cls-3" d="M2266.0957,1525.5766v88l-224,.9a51.79,51.79,0,0,1-52-51.8v-27.3a74.0733,74.0733,0,0,0-18.7-49.2l-73.9-83h275.9l70.6,69.7A73.5056,73.5056,0,0,1,2266.0957,1525.5766Z"/><path class="cls-2" d="M2041.9112,1617.4768a54.7908,54.7908,0,0,1-54.8155-54.8v-27.3008a70.9808,70.9808,0,0,0-17.9423-47.206l-78.3448-87.9932H2174.627l71.4766,70.5644a76.1317,76.1317,0,0,1,22.9921,54.835v90.9883l-226.9882.9121Zm-137.7276-211.3,69.4522,78.0049a76.9757,76.9757,0,0,1,19.46,51.1943v27.3008a48.7909,48.7909,0,0,0,48.8145,48.8h.1748l221.0107-.8887v-85.0117a70.1849,70.1849,0,0,0-21.1982-50.5566l-69.7334-68.8428Z"/><path class="cls-3" d="M2366.8958,1582.5766a57.8125,57.8125,0,0,1-51.8,32h-276a58.04,58.04,0,0,0,51.8-32Z"/><path class="cls-2" d="M2315.0957,1617.5764h-276v-6a54.8358,54.8358,0,0,0,49.1221-30.3525l.832-1.6475h282.7l-2.1709,4.3418A60.5765,60.5765,0,0,1,2315.0957,1617.5764Zm-249.5781-6h249.5781a54.5729,54.5729,0,0,0,46.7-26H2092.71A61.0851,61.0851,0,0,1,2065.5176,1611.5764Z"/></g><g id="CHARACTER"><g id="HOODY"><path class="cls-6" d="M2195.7957,1034.4765l-168.4-295.8a226.1313,226.1313,0,0,0-196.6-114.3h-630.7l22.1-47.7c-1.8,3.9-11.3,4.9-25.8,2.9-22.2-3-56-12.7-92-28.7-20.6-9.1-39.3-18.6-54.8-27.4-29.3-16.7-47-31.3-44.1-37.8l-322,528.1c-70.7,103.1,3.1,243.2,128.1,243.2a154.9238,154.9238,0,0,0,93.3-31.2l247.3-185.9a24.6827,24.6827,0,0,1,39.2,15.8l32.3,201.3h842.6C2180.5957,1257.0766,2252.2957,1133.6766,2195.7957,1034.4765Zm-374.8,23.1,27-61.4a13.26,13.26,0,0,1,24.2-.3l29.3,61.8h-80.5Z"/><path class="cls-6" d="M1775.6954,624.1765h-6c0-12.4751-3.0538-55.8735-42.3438-90.5513-40.957-36.1494-105.0137-49.0581-190.3828-38.372-61.1289,7.7-119.8911,26.2753-165.4605,52.3032-43.2231,24.6885-68.0127,52.6152-68.0127,76.62h-6c0-26.2183,25.8921-56.0439,71.0372-81.83,46.2387-26.4106,105.7915-45.25,167.6879-53.0464,46.4229-5.8125,87.3233-4.6167,121.5723,3.55,29.4834,7.0308,54.2227,19.2359,73.5293,36.2769C1772.4952,565.467,1775.6954,611.0666,1775.6954,624.1765Z"/><path class="cls-6" d="M1750.2957,625.0766c0,46.3-213.7,141.1-213.7,141.1s-213.7-94.8-213.7-141.1,101.6-99.9,218.7-114.2C1710.0957,490.2766,1750.2957,578.6766,1750.2957,625.0766Z"/><path class="cls-3" d="M1750.2957,625.0766c0,46.3-213.7,141.1-213.7,141.1s-213.7-94.8-213.7-141.1v-.6h427.4Z"/><path class="cls-3" d="M1536.5967,794.72l-1.3252-.6518c-.5908-.291-59.7885-29.4863-118.22-64.57-79.2646-47.5928-119.4556-83.062-119.4556-105.4224h6c0,40.1982,166.8868,131.312,232.9991,163.9556C1602.708,755.36,1769.5957,664.19,1769.5957,624.0764h6c0,22.3188-40.19,57.7749-119.455,105.3843-58.4317,35.0962-117.6289,64.3164-118.22,64.6074Z"/><path class="cls-3" d="M1718.6954,1257.2766a2.5,2.5,0,0,1,0-5c3.8369,0,9.6533-7.0064,14.4716-26.67,4.4678-18.2324,6.9287-42.499,6.9287-68.33s-2.4609-50.0977-6.9287-68.33c-4.8183-19.6636-10.6347-26.67-14.4716-26.67a2.5,2.5,0,0,1,0-5c17.1474,0,26.4,51.5225,26.4,100S1735.8428,1257.2766,1718.6954,1257.2766Z"/><rect class="cls-3" x="917.8425" y="778.8268" width="413.8069" height="4.9997" transform="translate(-77.1529 1437.8051) rotate(-63.4299)"/><path class="cls-3" d="M1207.6929,1161.7771a2.5009,2.5009,0,0,1-2.4687-2.125l-30.6-201.4a2.5,2.5,0,1,1,4.9433-.751l30.6,201.4a2.5028,2.5028,0,0,1-2.4746,2.876Z"/><path class="cls-3" d="M1546.5957,817.5764h-20a2.5,2.5,0,0,1,0-5h20a2.5,2.5,0,0,1,0,5Z"/><path class="cls-3" d="M1546.5957,841.3767h-20a2.5,2.5,0,0,1,0-5h20a2.5,2.5,0,0,1,0,5Z"/><path class="cls-3" d="M1546.5957,865.0764h-20a2.5,2.5,0,0,1,0-5h20a2.5,2.5,0,0,1,0,5Z"/><path class="cls-3" d="M1546.5957,888.7766h-20a2.5,2.5,0,0,1,0-5h20a2.5,2.5,0,0,1,0,5Z"/><path class="cls-3" d="M1546.5957,912.4768h-20a2.5,2.5,0,0,1,0-5h20a2.5,2.5,0,0,1,0,5Z"/><path class="cls-3" d="M1546.5957,936.2766h-20a2.5,2.5,0,0,1,0-5h20a2.5,2.5,0,0,1,0,5Z"/><path class="cls-3" d="M1546.5957,937.3767h-20a2.5,2.5,0,0,1,0-5h20a2.5,2.5,0,0,1,0,5Z"/><path class="cls-3" d="M1546.5957,961.0764h-20a2.5,2.5,0,0,1,0-5h20a2.5,2.5,0,0,1,0,5Z"/><path class="cls-3" d="M1546.5957,984.7766h-20a2.5,2.5,0,0,1,0-5h20a2.5,2.5,0,0,1,0,5Z"/><path class="cls-3" d="M1546.5957,1007.3767h-20a2.5,2.5,0,0,1,0-5h20a2.5,2.5,0,0,1,0,5Z"/><path class="cls-3" d="M1546.5957,1031.1765h-20a2.5,2.5,0,0,1,0-5h20a2.5,2.5,0,1,1,0,5Z"/><path class="cls-3" d="M1546.5957,1054.8767h-20a2.5,2.5,0,0,1,0-5h20a2.5,2.5,0,0,1,0,5Z"/><path class="cls-3" d="M1546.5957,1078.5764h-20a2.5,2.5,0,1,1,0-5h20a2.5,2.5,0,0,1,0,5Z"/><path class="cls-3" d="M1546.5957,1102.2766h-20a2.5,2.5,0,0,1,0-5h20a2.5,2.5,0,0,1,0,5Z"/><path class="cls-3" d="M1546.5957,1126.0764h-20a2.5,2.5,0,1,1,0-5h20a2.5,2.5,0,0,1,0,5Z"/><path class="cls-3" d="M1546.5957,1149.7766h-20a2.5,2.5,0,0,1,0-5h20a2.5,2.5,0,0,1,0,5Z"/><path class="cls-3" d="M1546.5957,1173.4768h-20a2.5,2.5,0,0,1,0-5h20a2.5,2.5,0,1,1,0,5Z"/><path class="cls-3" d="M1546.5957,1197.1765h-20a2.5,2.5,0,0,1,0-5h20a2.5,2.5,0,1,1,0,5Z"/><path class="cls-3" d="M1546.5957,1198.3767h-20a2.5,2.5,0,0,1,0-5h20a2.5,2.5,0,0,1,0,5Z"/><path class="cls-3" d="M1546.5957,1222.0764h-20a2.5,2.5,0,1,1,0-5h20a2.5,2.5,0,0,1,0,5Z"/><path class="cls-3" d="M1546.5957,1245.7766h-20a2.5,2.5,0,0,1,0-5h20a2.5,2.5,0,0,1,0,5Z"/><rect class="cls-3" x="1521.9961" y="782.7766" width="5" height="376.5"/><path class="cls-3" d="M1947.5957,1062.0764h-240.5a2.5,2.5,0,1,1,0-5h240.5a2.5,2.5,0,0,1,0,5Z"/></g><g id="BOOK"><polygon class="cls-3" points="1037.896 1453.077 1805.796 1453.077 1733.596 1257.777 1121.096 1257.777 1037.896 1453.077"/><path class="cls-2" d="M1810.1036,1456.0764H1033.3565l85.7563-201.3h616.5728l.7236,1.96Zm-767.669-6h759.0537l-69.9824-189.3H1123.0787Z"/><path class="cls-2" d="M1037.8958,1453.0766c0-27.6,73.2-77.5,192.1-84.3,127.3-7.2,194,72.8,192.1,84.3Z"/><path class="cls-3" d="M1421.9956,1453.0766s-33.8-158-330.5-125.8l64.1-155.9s243-44.2,266.5,86.4Z"/><path class="cls-2" d="M1421.9932,1456.0764a3,3,0,0,1-2.93-2.3682h0c-.084-.3877-8.9116-39.1562-53.2846-73.54-41.1265-31.8691-122.0425-66.396-273.959-49.9092a3,3,0,0,1-3.0982-4.123l64.1-155.9a3,3,0,0,1,2.2378-1.8111,558.2733,558.2733,0,0,1,85.44-7.2382c43.5171-.2754,103.623,5.1147,143.2436,32.5947,22.6587,15.7163,36.5562,37.0688,41.3057,63.4638a3.0012,3.0012,0,0,1,.0473.5328l-.1,195.3a3,3,0,0,1-2.685,2.9814A2.9035,2.9035,0,0,1,1421.9932,1456.0764Zm-254.8525-136.1123c37.3466,0,71.4135,3.4907,101.8359,10.46,40.148,9.1977,74.0874,24.4423,100.875,45.3105,28.0625,21.8613,42.27,45.0645,49.1528,60.166l.0913-177.855c-4.5019-24.6489-17.5459-44.6108-38.7724-59.3339-69.4522-48.1709-206.2031-27.3716-222.585-24.6573l-61.5556,149.7115A698.7229,698.7229,0,0,1,1167.1407,1319.9641Z"/><path class="cls-3" d="M1801.2957,1440.7766c-17.7-24.5-85.9-50.1-187.5-55.9-120.8-6.9-187,50.5-191.8,66.1v-193.2s86.2-98.4,311.6,0Z"/><path class="cls-2" d="M1421.9981,1453.9768a3.0488,3.0488,0,0,1-.4487-.0332,3,3,0,0,1-2.5538-2.9668v-193.2a3.0027,3.0027,0,0,1,.7432-1.9771c.9053-1.0332,22.7471-25.4511,72.8115-37.8349,29.2193-7.229,62.063-8.8023,97.6128-4.6807,44.2862,5.1353,92.9483,19.18,144.6328,41.7432a3,3,0,0,1,1.6133,1.7085l67.7,183a3,3,0,0,1-5.2451,2.7978c-16-22.1465-80.792-48.6982-185.2393-54.6621-64.3349-3.6738-110.5166,11.1992-137.934,24.3233-33.89,16.2226-49.0948,34.0312-50.8282,39.664A2.9993,2.9993,0,0,1,1421.9981,1453.9768Zm2.9975-195.01v181.6338c19.7715-23.4336,85.7759-64.6113,188.9712-58.72,92.0811,5.2568,153.3643,25.9844,179.7246,46.9853l-62.4658-168.85c-115.0224-49.9692-192.4668-47.3022-237.2348-36.228C1450.7164,1234.4934,1429.1377,1254.7331,1424.9956,1258.967Z"/><path class="cls-2" d="M1472.6988,1377.7776a3.001,3.001,0,0,1-1.4942-5.6045c17.333-9.9278,46.5581-22.72,87.3579-27.2783a295.9039,295.9039,0,0,1,48.7061-1.1133c33.2314,1.91,63.87,6.3808,91.0654,13.2881a2.9995,2.9995,0,1,1-1.4765,5.8144c-26.8252-6.8125-57.083-11.2246-89.9336-13.1123a290.1236,290.1236,0,0,0-47.7061,1.0869c-39.7666,4.4434-68.19,16.875-85.0307,26.5215A2.9952,2.9952,0,0,1,1472.6988,1377.7776Z"/><path class="cls-2" d="M1469.0987,1345.7776a3.0007,3.0007,0,0,1-1.4942-5.604c17.333-9.9287,46.5586-22.72,87.3584-27.2784a295.8566,295.8566,0,0,1,48.7061-1.1137c30.9541,1.8154,59.793,5.8442,85.7168,11.9756a3,3,0,1,1-1.3809,5.8388c-25.5869-6.0512-54.0791-10.03-84.6845-11.8247a289.9586,289.9586,0,0,0-47.7022,1.0879c-39.7666,4.4429-68.1909,16.8745-85.0312,26.521A2.9952,2.9952,0,0,1,1469.0987,1345.7776Z"/><path class="cls-2" d="M1466.3985,1313.7771a3,3,0,0,1-1.4942-5.6035c17.333-9.9287,46.5586-22.72,87.3584-27.2784a295.7992,295.7992,0,0,1,48.7061-1.1137,515.0632,515.0632,0,0,1,80.1767,10.7666,3,3,0,1,1-1.2988,5.8574,509.0886,509.0886,0,0,0-79.23-10.6343,289.8012,289.8012,0,0,0-47.6983,1.0879c-39.7666,4.4429-68.1909,16.8745-85.0312,26.5205A2.9845,2.9845,0,0,1,1466.3985,1313.7771Z"/><rect class="cls-2" x="1742.2957" y="1243.3229" width="6.0006" height="184.508" transform="translate(-353.408 683.4534) rotate(-20.1634)"/><path class="cls-2" d="M1805.8958,1453.0766h-383.9v-2.1c4.8-15.6,71-73,191.8-66.1,101.6,5.8,169.8,31.4,187.5,55.9Z"/></g><g id="HEAD"><g id="NECK"><path class="cls-5" d="M1659.0957,624.3766s-71.6,37.3-171,22.3h0a324.88,324.88,0,0,1-78.6-22.3v-120.4l128.8-80.2,19.3,32.1Z"/><path class="cls-9" d="M1545.3958,433.2766a57.0617,57.0617,0,0,1,3.4,46.6l-60.7,166.8h0a324.88,324.88,0,0,1-78.6-22.3v-120.4l129.4-82.7Z"/></g><path id="HAIR" class="cls-9" d="M1534.2957,379.3766s15.1-134.3-38.6-146.6c-41-9.4-61.4,21.5-61.4,21.5s-22.2-32.4-56.6-17.2c-32.7,14.4-30.4,59.3-15.7,55.7s-14.2-32.4-45.1-11.1c-34.2,23.5,0,62.3,0,62.3s-25.3-12.2-37,12.7c-14.5,30.9,68.3,97.5,68.3,97.5Z"/><g id="HEAD-2" data-name="HEAD"><path id="HEAD-3" data-name="HEAD" class="cls-5" d="M1452.4956,314.4766l-85.9,34.5a40.5409,40.5409,0,0,0-22.5,52.6l37.5,93.5c13.8,34.5,53.4,51.3,87.8,37.5l35.7-14.3c34.5-13.8,51.3-53.4,37.5-87.8l-37.5-93.5A40.5409,40.5409,0,0,0,1452.4956,314.4766Z"/><g id="EARS"><path class="cls-5" d="M1559.8958,423.4766l-17.3,7-18.8-46.8,17.3-7a20.0148,20.0148,0,0,1,26,11.1l3.9,9.7A19.9193,19.9193,0,0,1,1559.8958,423.4766Z"/><path class="cls-9" d="M1362.9956,498.6766l17.3-7-17.5-43.5-17.3,7a19.9674,19.9674,0,0,0-11.1,26l2.6,6.4A20.0149,20.0149,0,0,0,1362.9956,498.6766Z"/><path class="cls-9" d="M1538.7969,410.9773a2.5013,2.5013,0,0,1-2.3262-1.5821,18.4212,18.4212,0,0,1,10.1817-23.7338,2.5,2.5,0,1,1,1.8867,4.6308,13.2453,13.2453,0,0,0-7.418,17.2661,2.5007,2.5007,0,0,1-2.3242,3.419Z"/></g><g id="FACE"><path class="cls-9" d="M1470.9053,370.0442c-10.1318,0-16.6079-2.3477-17.0859-2.5264a2.5,2.5,0,0,1,1.7485-4.6841c.2246.0821,19.7315,7.0352,44.1592-4.5176a2.5,2.5,0,0,1,2.1372,4.5206A72.15,72.15,0,0,1,1470.9053,370.0442Z"/><path class="cls-9" d="M1453.0933,449.7771a2.501,2.501,0,0,1-2.4414-1.9732c-10.3481-47.9765-37.4653-46.0454-38.6143-45.9389a2.5,2.5,0,0,1-.4961-4.9751c.3438-.0362,8.5391-.793,18.1055,5.1924,12.4712,7.8032,21.1831,22.8315,25.8926,44.667a2.5024,2.5024,0,0,1-2.4463,3.0278Z"/><path class="cls-9" d="M1454.6929,477.4768a2.5,2.5,0,0,1-2.4917-2.3272c-.3564-5.146,1.251-9.2275,4.7774-12.1308,11.4892-9.459,40.2475-1.8828,41.4653-1.5567a2.5,2.5,0,0,1-1.2954,4.8291c-7.6148-2.0395-29.1055-5.9106-36.9937.5889-2.2373,1.8428-3.207,4.4351-2.9653,7.9238a2.5,2.5,0,0,1-2.3213,2.667C1454.8091,477.4748,1454.751,477.4768,1454.6929,477.4768Z"/><ellipse class="cls-9" cx="1488.1716" cy="407.0578" rx="4.1001" ry="10.0999" transform="translate(-50.5079 520.2665) rotate(-19.5058)"/><ellipse class="cls-9" cx="1405.6901" cy="441.4708" rx="4.1001" ry="10.0999" transform="translate(-66.7323 494.7008) rotate(-19.5058)"/></g><g id="GLASSES"><path class="cls-1" d="M1490.5957,438.2766a31.4,31.4,0,1,1,31.4-31.4A31.4355,31.4355,0,0,1,1490.5957,438.2766Zm0-57.8a26.4,26.4,0,1,0,26.4,26.4A26.43,26.43,0,0,0,1490.5957,380.4768Z"/><path class="cls-1" d="M1405.5957,471.2766a31.4,31.4,0,1,1,31.4-31.4A31.4355,31.4355,0,0,1,1405.5957,471.2766Zm0-57.8a26.4,26.4,0,1,0,26.4,26.4A26.43,26.43,0,0,0,1405.5957,413.4768Z"/><path class="cls-1" d="M1432.5972,431.9773a2.5,2.5,0,0,1-1.0444-4.7725l30.5-14a2.5,2.5,0,0,1,2.0859,4.544l-30.5,14A2.4893,2.4893,0,0,1,1432.5972,431.9773Z"/></g></g></g><g id="ARMS"><g id="LEFT"><path class="cls-3" d="M1228.1958,565.6766c-1.7,3.9-11.3,4.9-25.8,2.9-22.2-3-56-12.7-92-28.7-20.6-9.2-39.3-18.6-54.7-27.4-29.3-16.7-47-31.3-44.1-37.8h0c2.9-6.4,25.4-3.3,57.2,7a576.989,576.989,0,0,1,57.6,22.4c35.6,15.8,66.5,31.2,84.7,43.1C1223.4956,555.1766,1229.9956,561.6766,1228.1958,565.6766Z"/><path class="cls-6" d="M1215.1792,572.59a98.1351,98.1351,0,0,1-13.1933-1.0415c-24.9341-3.3692-59.6319-14.1846-92.8086-28.93-20.3106-9.0708-39.3169-18.5918-54.97-27.5361-33.8164-19.2744-49.0757-33.28-45.3516-41.6275,2.0967-4.6259,8.7266-6.0542,20.88-4.5166,10.1738,1.29,24,4.7075,39.9844,9.8848a583.1287,583.1287,0,0,1,57.9,22.5151c38.3916,17.0391,67.8272,32.023,85.1167,43.3282,15.1006,9.7421,20.7193,16.6015,18.2,22.229C1229.27,570.6863,1223.9854,572.59,1215.1792,572.59Zm-194.0683-98.2778c-4.27,0-6.3814.7172-6.7827,1.603-1.1011,2.4682,7.9135,14.041,42.853,33.9555,15.4868,8.85,34.31,18.2779,54.4375,27.2671,32.6816,14.5249,66.7685,25.1675,91.1787,28.4659,17.356,2.3935,22.2788-.2789,22.6484-1.1255l.0142-.0323c.0156-.0341,1.0684-3.7421-15.9907-14.748-17.04-11.1416-46.1812-25.9653-84.29-42.8789a577.0493,577.0493,0,0,0-57.3017-22.2861C1043.5269,476.6452,1028.8106,474.3118,1021.1109,474.3118Z"/><path class="cls-9" d="M1397.8958,362.8766l-27.2,105.1-24.5-61a46.58,46.58,0,0,1,25-60Z"/><path class="cls-5" d="M1398.8958,360.9766l-54,93.6a34.9855,34.9855,0,0,1-30.3,17.5h-55.8a20.1584,20.1584,0,0,0-18.6,12.5l-29,62.7-8.5,18.3c-24.5-3.3-58.6-13.9-91.2-28.4-12.2-5.4-24.1-11.1-35.1-16.8l14.7-30.7,26.3-54.9a152.615,152.615,0,0,1,62-71.3l54.4-32.7a46.7394,46.7394,0,0,1,23.9-6.6h92.4a33.2089,33.2089,0,0,1,14.6,3.3l27.8,13.2A14.4783,14.4783,0,0,1,1398.8958,360.9766Z"/><path class="cls-9" d="M1381.1934,401.9773a2.501,2.501,0,0,1-2.168-3.7407,11.482,11.482,0,0,0-5.0107-16.0054l-26.7-12.8a30.002,30.002,0,0,0-13.0191-2.9541h-66a2.5,2.5,0,0,1,0-5h66a34.9683,34.9683,0,0,1,15.1763,3.4434l26.7041,12.8022a16.4812,16.4812,0,0,1,7.19,22.9946A2.4989,2.4989,0,0,1,1381.1934,401.9773Z"/><path class="cls-9" d="M1364.7935,430.3772a2.501,2.501,0,0,1-2.168-3.7407,11.481,11.481,0,0,0-5.01-16.0054l-26.7-12.8a30.0128,30.0128,0,0,0-13.02-2.9541h-66a2.5,2.5,0,0,1,0-5h66a34.98,34.98,0,0,1,15.1773,3.4434l26.7036,12.8022a16.4808,16.4808,0,0,1,7.19,22.9946A2.4989,2.4989,0,0,1,1364.7935,430.3772Z"/><path class="cls-9" d="M1345.4937,467.4773a2.501,2.501,0,0,1-2.168-3.7407,11.482,11.482,0,0,0-5.0107-16.0054l-26.7-12.8a30.0026,30.0026,0,0,0-13.02-2.9541h-66a2.5,2.5,0,0,1,0-5h66a34.9689,34.9689,0,0,1,15.1768,3.4434l26.7036,12.8022a16.4807,16.4807,0,0,1,7.19,22.9946A2.4986,2.4986,0,0,1,1345.4937,467.4773Z"/><path class="cls-9" d="M1202.7957,565.5766c-24.5-3.3-58.6-13.9-91.2-28.4-12.2-5.4-24.1-11.1-35.1-16.8l16.6-33.9c11.1,4.2,22,9,34.2,14.5,35.6,15.8,66.7,32.3,84.9,44.2Z"/><path class="cls-9" d="M1259.8955,471.8767h-46.8a2.5,2.5,0,0,1,0-5h46.8a2.5,2.5,0,0,1,0,5Z"/></g><g id="RIGHT"><ellipse class="cls-3" cx="1706.6958" cy="1157.2766" rx="23.8999" ry="99.7"/><path class="cls-5" d="M1730.5957,1157.2766a359.5474,359.5474,0,0,1-2.9,47.3,59.7453,59.7453,0,0,1-34.9,34.2,60.6559,60.6559,0,0,1-21,3.8h-90.7a20.7416,20.7416,0,0,0-20.7,20.7v2.8a22.2629,22.2629,0,0,1-32.6,19.7l-42.6-22.3a23.2034,23.2034,0,0,1-12.4-20.5v-33.3a39.7837,39.7837,0,0,1,15.8-31.7l65-48.9a63.2356,63.2356,0,0,1,38.1-12.7h136.7A347.079,347.079,0,0,1,1730.5957,1157.2766Z"/><path class="cls-9" d="M1507.1934,1274.4773a2.4874,2.4874,0,0,1-1.1416-.2774,23.5129,23.5129,0,0,1-12.7559-21.0234v-30.6a39.252,39.252,0,0,1,15.4893-31.0918l59.708-44.9062a2.5,2.5,0,0,1,3.0059,3.996l-59.7,44.9a34.22,34.22,0,0,0-13.503,27.1016v30.6a18.777,18.777,0,0,0,10.043,16.5771,2.5,2.5,0,0,1-1.1455,4.7237Z"/><path class="cls-9" d="M1537.5938,1287.8772a2.4937,2.4937,0,0,1-1.1416-.2774,23.5147,23.5147,0,0,1-12.7568-21.0234v-30.6a39.2534,39.2534,0,0,1,15.4892-31.0923l59.708-44.9058a2.5,2.5,0,0,1,3.0059,3.9961l-59.7,44.9a34.2217,34.2217,0,0,0-13.5029,27.1021v30.6a18.7771,18.7771,0,0,0,10.0439,16.5771,2.5,2.5,0,0,1-1.1455,4.7237Z"/><path class="cls-9" d="M1730.5957,1157.2766a359.5474,359.5474,0,0,1-2.9,47.3,59.7453,59.7453,0,0,1-34.9,34.2c-6.1-18.1-10.1-47.8-10.1-81.5a397.3551,397.3551,0,0,1,2.1-40.9h43.7A371.0691,371.0691,0,0,1,1730.5957,1157.2766Z"/></g></g></g><g id="CUP"><ellipse class="cls-1" cx="1904.2957" cy="1293.4765" rx="108.3999" ry="9.1"/><path class="cls-3" d="M1994.4956,1300.3766h-44.8a75.1767,75.1767,0,0,1-75.2-75.2v-63.9h195.3v63.8A75.2834,75.2834,0,0,1,1994.4956,1300.3766Z"/><path class="cls-1" d="M1994.4961,1303.3767h-44.8007a78.2884,78.2884,0,0,1-78.1993-78.2v-66.9h201.3v66.8A78.3887,78.3887,0,0,1,1994.4961,1303.3767Zm-117-139.1v60.9a72.2816,72.2816,0,0,0,72.1993,72.2h44.8007a72.3818,72.3818,0,0,0,72.3-72.3v-60.8Z"/><path class="cls-1" d="M2097.0957,1218.9768h-30.4v-54.7h30.4a24.327,24.327,0,0,1,24.3,24.3v6.2A24.2772,24.2772,0,0,1,2097.0957,1218.9768Zm-24.4-6h24.4a18.2707,18.2707,0,0,0,18.3-18.2v-6.2a18.32,18.32,0,0,0-18.3-18.3h-24.4Z"/><ellipse class="cls-7" cx="1972.0957" cy="1160.5766" rx="98.5" ry="19.7"/><path class="cls-3" d="M1972.0957,1182.7766c-40.5986,0-101-5.9121-101-22.2s60.4014-22.2,101-22.2,101,5.9121,101,22.2S2012.6944,1182.7766,1972.0957,1182.7766Zm0-39.4c-26.15,0-50.7119,2.0317-69.16,5.7212-21.1865,4.2373-26.84,9.209-26.84,11.4785s5.6534,7.2412,26.84,11.479c18.4482,3.6895,43.0088,5.7212,69.16,5.7212s50.712-2.0317,69.16-5.7212c21.1865-4.2378,26.84-9.2095,26.84-11.479s-5.6533-7.2412-26.84-11.4785C2022.8077,1145.4084,1998.2461,1143.3767,1972.0957,1143.3767Z"/><path class="cls-1" d="M1972.0957,1199.2766c-26.2294,0-50.9189-2.0674-69.5185-5.8218-20.8477-4.208-30.9815-9.729-30.9815-16.8784h6c0,1.9766,5.47,6.8188,26.169,10.9971,18.2207,3.6777,42.4883,5.7031,68.331,5.7031s50.11-2.0254,68.3311-5.7031c20.6992-4.1783,26.1689-9.02,26.1689-10.9971h6c0,7.1494-10.1337,12.67-30.9814,16.8784C2023.0147,1197.2092,1998.3252,1199.2766,1972.0957,1199.2766Z"/><path class="cls-1" d="M1972.0957,1220.1765c-26.2294,0-50.9189-2.0674-69.5185-5.8218-20.8477-4.2075-30.9815-9.7285-30.9815-16.8779h6c0,1.9766,5.47,6.8188,26.169,10.9966,18.2207,3.6777,42.4883,5.7031,68.331,5.7031s50.11-2.0254,68.3311-5.7031c20.6992-4.1782,26.1689-9.02,26.1689-10.9966h6c0,7.1494-10.1337,12.67-30.9814,16.8779C2023.0137,1218.1091,1998.3252,1220.1765,1972.0957,1220.1765Z"/><path class="cls-1" d="M1972.0957,1241.0764c-26.2294,0-50.9189-2.0674-69.5185-5.8218-20.8477-4.2075-30.9815-9.7285-30.9815-16.8779h6c0,1.9766,5.47,6.8188,26.169,10.9966,18.2207,3.6777,42.4883,5.7031,68.331,5.7031s50.11-2.0254,68.3311-5.7031c20.6992-4.1778,26.1689-9.02,26.1689-10.9966h6c0,7.1494-10.1337,12.67-30.9814,16.8779C2023.0147,1239.009,1998.3252,1241.0764,1972.0957,1241.0764Z"/><path class="cls-1" d="M1972.0957,1261.9768c-25.8427,0-50.1611-2.0684-68.4775-5.8237-20.5381-4.2115-30.5225-9.7315-30.5225-16.8765h6c0,1.98,5.377,6.8262,25.7276,10.9985,17.9316,3.6768,41.8222,5.7017,67.2724,5.7017s49.3409-2.0249,67.2725-5.7017c20.3506-4.1723,25.7275-9.019,25.7275-10.9985h6c0,7.145-9.9843,12.665-30.5224,16.8765C2022.2569,1259.9084,1997.9385,1261.9768,1972.0957,1261.9768Z"/><path class="cls-1" d="M1972.0957,1282.8767c-36.78,0-91.5-6.0454-91.5-22.7h6c0,1.9946,4.9248,6.8623,23.5635,11.0093,16.4951,3.67,38.4912,5.6909,61.9365,5.6909s45.4415-2.021,61.9366-5.6909c18.6386-4.147,23.5634-9.0147,23.5634-11.0093h6C2063.5957,1276.8313,2008.876,1282.8767,1972.0957,1282.8767Z"/><path class="cls-3" d="M1968.1934,1128.0764a2.4892,2.4892,0,0,1-1.4141-.44c-7.3584-5.0586-21.54-33.4537-21.6015-59.003-.043-17.6665,6.56-31.6054,19.0918-40.31q1.1776-.8211,2.3008-1.4883c-2.5557-12.5562-2.9737-26.7661-.32-39.1641,5.2364-24.4712,20.626-36.65,43.3047-34.2807,14.8135,1.5263,21.126,12.9189,20.8086,23.5327-.3213,10.7236-7.624,21.8789-20.96,22.4512a2.5,2.5,0,1,1-.2149-4.9952c10.7666-.4624,15.9326-9.45,16.1768-17.6054.23-7.6929-3.9073-17.13-16.3252-18.41-25.3926-2.646-34.625,15.0464-37.9,30.354-2.4824,11.5991-2.0977,24.5108.0537,35.8711,8.3408-3.105,13.8906.1519,16.7422,2.792,7.7021,7.1328,9.8057,22.5933,5.8144,29.3711a6.5387,6.5387,0,0,1-8.0332,3.2c-7.7578-2.5523-14.2529-13.7691-17.9521-27.96q-.3179.2124-.64.4361c-11.2851,7.8388-16.9863,20.0156-16.9472,36.1938.0605,25.26,14.4638,51.478,19.4336,54.895a2.5,2.5,0,0,1-1.418,4.56Zm4.0693-98.5488c3.2618,13.3388,8.9522,23.68,15.0147,25.6738.6992.2305,1.3906.3276,2.164-.9863,2.67-4.5342,1.2842-17.4356-4.9033-23.166C1981.2432,1027.9963,1977.128,1027.4914,1972.2627,1029.5276Z"/></g><g id="LAPTOP"><path class="cls-3" d="M805.1957,1419.3766h-491.5a32.18,32.18,0,0,1-29.9-20.2l-134.5-332.4a24.2421,24.2421,0,0,1,22.4-33.3h491.5a32.18,32.18,0,0,1,29.9,20.2l134.5,332.4A24.1632,24.1632,0,0,1,805.1957,1419.3766Z"/><path class="cls-1" d="M805.1958,1422.3762h-491.5a35.0537,35.0537,0,0,1-32.6836-22.081l-134.497-332.3931a27.2415,27.2415,0,0,1,25.1806-37.4253h491.5a35.0542,35.0542,0,0,1,32.6836,22.0815l134.4971,332.3931a27.1623,27.1623,0,0,1-25.1807,37.4248Zm-633.5-385.8994a21.2416,21.2416,0,0,0-19.6167,29.18L286.5767,1398.052a29.0859,29.0859,0,0,0,27.1191,18.3242h491.5a21.1633,21.1633,0,0,0,19.6231-29.165L690.3145,1054.802a29.0834,29.0834,0,0,0-27.1187-18.3252Z"/><path class="cls-1" d="M782.3958,1421.7766h-468.9a30.78,30.78,0,0,1-28.5-19.2l-128.3-317.1a23.0493,23.0493,0,0,1,21.4-31.7h468.9a30.7806,30.7806,0,0,1,28.5,19.2l128.3,317.1A23.0887,23.0887,0,0,1,782.3958,1421.7766Z"/><path class="cls-3" d="M494.4958,1277.5766a51.4459,51.4459,0,0,1-36.6-15.2,42.0082,42.0082,0,0,1,0-59.6,34.5233,34.5233,0,0,1,48.8,0,28.4272,28.4272,0,0,1,0,40.2,23.5386,23.5386,0,0,1-33.3,0,4.03,4.03,0,0,1,5.7-5.7,15.5115,15.5115,0,0,0,22,0,20.4,20.4,0,0,0,0-28.9,26.5563,26.5563,0,0,0-37.6,0,33.7908,33.7908,0,0,0-10,24.2,34.38,34.38,0,0,0,10,24.2,43.6974,43.6974,0,0,0,61.8,0,4.03,4.03,0,0,1,5.7,5.7A51.3614,51.3614,0,0,1,494.4958,1277.5766Z"/><path class="cls-3" d="M981.0957,1454.5766h-666.8a13.87,13.87,0,0,1-13.9-13.9v-6.7a13.87,13.87,0,0,1,13.9-13.9h666.8a13.87,13.87,0,0,1,13.9,13.9v6.7A13.9993,13.9993,0,0,1,981.0957,1454.5766Z"/><path class="cls-1" d="M981.0957,1457.5764h-666.8a16.9192,16.9192,0,0,1-16.9-16.8994v-6.7a16.9194,16.9194,0,0,1,16.9-16.9h666.8a16.9189,16.9189,0,0,1,16.9,16.9v6.7A17.0647,17.0647,0,0,1,981.0957,1457.5764Zm-666.8-34.5a10.9127,10.9127,0,0,0-10.9,10.9v6.7a10.9125,10.9125,0,0,0,10.9,10.8994h666.8a11.0336,11.0336,0,0,0,10.9-10.9385v-6.6611a10.9123,10.9123,0,0,0-10.9-10.9Z"/></g></svg>