<svg id="Layer_1" data-name="Layer 1" xmlns="http://www.w3.org/2000/svg" width="3000" height="1220" viewBox="0 0 3000 1220"><defs><style>.cls-1{fill:#f187b6;}</style></defs><title>logo</title><path class="cls-1" d="M184.413,980.5042V375.3412a63.0131,63.0131,0,0,1,63.0131-63.0131H670.9293a63.013,63.013,0,0,1,63.013,63.0131V408.27a63.013,63.013,0,0,1-63.013,63.0131h-210.05a63.013,63.013,0,0,0-63.013,63.013h0a63.013,63.013,0,0,0,63.013,63.0131H627.7837a63.013,63.013,0,0,1,63.013,63.013v35.2a63.013,63.013,0,0,1-63.013,63.0131H460.8791a63.013,63.013,0,0,0-63.013,63.013V980.5042a63.013,63.013,0,0,1-63.0131,63.013H247.4261A63.013,63.013,0,0,1,184.413,980.5042Z"/><path class="cls-1" d="M1108.2052,692.6292V533.6739a63.013,63.013,0,0,0-63.0131-63.013H878.2876a63.0131,63.0131,0,0,1-63.0131-63.0131v-35.2a63.013,63.013,0,0,1,63.0131-63.013h166.9045a63.013,63.013,0,0,0,63.0131-63.013v0a63.013,63.013,0,0,0-63.0131-63.013h-210.05a63.013,63.013,0,0,1-63.013-63.013V87.4662a63.013,63.013,0,0,1,63.013-63.0131h423.5033a63.013,63.013,0,0,1,63.013,63.0131v605.163a63.013,63.013,0,0,1-63.013,63.013h-87.427A63.013,63.013,0,0,1,1108.2052,692.6292Z"/><path class="cls-1" d="M919.0342,662.0308v339.8408a65.355,65.355,0,0,0,65.3551,65.355h38.2781a65.355,65.355,0,0,1,65.355,65.3551h0a65.355,65.355,0,0,1-65.355,65.355H639.8767a65.355,65.355,0,0,1-65.355-65.355h0a65.355,65.355,0,0,1,65.355-65.3551h38.2818a65.355,65.355,0,0,0,65.355-65.355V662.0308a65.3551,65.3551,0,0,1,65.3551-65.3551h44.8106A65.355,65.355,0,0,1,919.0342,662.0308Z"/><path class="cls-1" d="M1490.3428,755.6406V558.6528H1638.39v42.8233h-90.541v33.9531h78.918v43.4351h-78.918v76.7763Z"/><path class="cls-1" d="M1717.3027,758.6992q-29.0625,0-42.2109-14.6816-13.1557-14.6836-13.1533-39.7652V653.17h-18.9649V610.6523h18.9649v-29.67l57.5058-13.7646v43.435h33.3409l-2.1407,42.5176h-31.2v46.8q0,9.1766,4.5879,13,4.5879,3.8292,14.0713,3.8242a56.8107,56.8107,0,0,0,18.0469-3.0595V751.97Q1739.9332,758.6948,1717.3027,758.6992Z"/><path class="cls-1" d="M1771.44,755.6406V549.4761h57.5059v70.0468a67.9769,67.9769,0,0,1,19.1172-8.5644,87.1522,87.1522,0,0,1,24.624-3.3647q29.9736,0,43.7412,13.9174,13.7652,13.9227,13.7647,42.9766v91.1528h-57.8116V668.77q0-10.0943-4.13-14.3764-4.13-4.28-14.835-4.2823a32.7434,32.7434,0,0,0-13.3057,3.0586,36.6644,36.6644,0,0,0-11.165,7.3413v95.1294Z"/><path class="cls-1" d="M1970.873,755.6406V652.5586h-21.1064l4.8945-41.9063h73.7178V755.6406Zm-4.5888-164.2588v-41.6h62.0947v41.6Z"/><path class="cls-1" d="M2112.4922,758.6992a223.6789,223.6789,0,0,1-35.0234-2.6q-16.3668-2.5957-25.8467-6.5762V708.2285a109.6363,109.6363,0,0,0,25.541,7.6475,141.9074,141.9074,0,0,0,25.2353,2.7529q11.0114,0,16.6709-.6113,5.6557-.6095,5.6582-5.2,0-5.1974-10.0937-7.9531-10.0942-2.7532-25.3887-7.9532-19.8867-7.0326-29.67-16.5175-9.794-9.4776-9.7881-27.5293,0-21.7149,17.1289-33.4942,17.127-11.7714,53.835-11.7763a205.9746,205.9746,0,0,1,29.0595,2.1411,149.9607,149.9607,0,0,1,23.5528,4.894v40.3765a86.6293,86.6293,0,0,0-20.0352-5.8116,119.348,119.348,0,0,0-19.73-1.8354,147.6435,147.6435,0,0,0-17.4355.9175q-7.6494.9177-7.6475,5.2,0,4.8961,8.7178,7.0351,8.7188,2.1438,23.4,6.7295,16.5176,4.8963,25.8467,10.7061,9.3265,5.814,13.1533,14.07,3.82,8.2587,3.8232,20.4946,0,22.0225-17.8935,34.1055Q2147.669,758.7036,2112.4922,758.6992Z"/><path class="cls-1" d="M2254.1152,758.6992q-26.6118,0-37.93-11.3174-11.32-11.313-11.3173-35.4824V549.4761h57.5058v156q0,6.7317,2.753,9.0229,2.7523,2.2955,8.5644,2.2949a48.9473,48.9473,0,0,0,7.8-.6123,38.8577,38.8577,0,0,0,7.1885-1.8349V752.582a84.6379,84.6379,0,0,1-34.5645,6.1172Z"/><path class="cls-1" d="M2347.7109,758.6992a65.9508,65.9508,0,0,1-25.541-4.8935,41.3278,41.3278,0,0,1-18.8115-15.294q-7.04-10.3959-7.0352-26.3066,0-22.941,15.294-35.6348,15.2914-12.69,46.1875-12.6943h37.624v-2.753q0-8.56-7.0351-12.541-7.04-3.9719-24.7764-3.9765a165.3271,165.3271,0,0,0-49.5527,7.6469V617.688a148.21,148.21,0,0,1,27.5293-7.1885,193.9643,193.9643,0,0,1,33.6464-2.9057q34.563,0,54.753,14.0708,20.1884,14.0727,20.1884,44.6586v89.3174h-50.165l-2.7529-11.623q-7.6494,6.731-19.7295,10.7051Q2365.4478,758.6953,2347.7109,758.6992Zm19.5762-33.6465q9.7866,0,16.6709-3.3652a38.9032,38.9032,0,0,0,11.4707-8.2588V695.3818h-27.8349q-18.97,0-18.9649,14.9883Q2348.6289,725.0523,2367.2871,725.0527Z"/><path class="cls-1" d="M2476.18,755.6406V610.6523h53.8349l1.5293,11.0123q8.2588-5.5063,21.8711-9.7886a96.8643,96.8643,0,0,1,29.212-4.2822q27.2211,0,39.7646,13.4589,12.5391,13.4634,12.541,41.6v92.9883h-57.5058V668.4644q0-9.786-4.2823-14.0708-4.2876-4.28-14.9882-4.2823a32.743,32.743,0,0,0-13.3057,3.0586,36.6649,36.6649,0,0,0-11.1651,7.3413v95.1294Z"/><path class="cls-1" d="M2720.5771,758.6992q-20.496,0-35.6357-6.8818-15.1406-6.8833-23.5527-22.4824-8.4156-15.6006-8.4112-41.6,0-26.6118,9.4815-44.3531,9.479-17.7363,25.3887-26.7646a68.8891,68.8891,0,0,1,34.5644-9.0234,95.1017,95.1017,0,0,1,20.0352,2.1411,65.0488,65.0488,0,0,1,17.2822,6.1176V549.4761h57.5059V755.6406H2767.377l-2.753-11.3174a68.42,68.42,0,0,1-19.1172,10.5528Q2734.9526,758.6977,2720.5771,758.6992Zm16.5176-41.6a31.98,31.98,0,0,0,22.6348-8.8711V656.8408q-8.5664-7.642-22.6348-7.647-11.32,0-18.3525,10.0938-7.04,10.0942-7.0361,28.7529,0,18.3531,6.1181,23.7056Q2723.94,717.1016,2737.0947,717.1Z"/></svg>